<?xml version="1.0" standalone="no"?>
<!DOCTYPE svg PUBLIC "-//W3C//DTD SVG 20010904//EN"
 "http://www.w3.org/TR/2001/REC-SVG-20010904/DTD/svg10.dtd">
<svg version="1.0" xmlns="http://www.w3.org/2000/svg"
 width="100px" viewBox="0 0 230.000000 54.000000"
 preserveAspectRatio="xMidYMid meet">

<g transform="translate(0.000000,54.000000) scale(0.100000,-0.100000)"
fill="darkolivegreen" stroke="none">
<path d="M22 523 c-7 -15 -15 -217 -17 -438 l0 -60 53 -1 52 -1 -1 41 c-1 33
-2 36 -8 16 -15 -52 -21 -1 -11 90 0 3 33 -30 74 -72 41 -43 77 -78 80 -78 14
0 4 19 -11 23 -10 2 -3 4 15 4 21 0 28 -3 20 -8 -7 -4 -9 -11 -6 -15 4 -4 21
8 38 26 l30 33 -37 33 c-21 18 -41 33 -45 34 -10 0 -68 82 -68 97 0 14 30 32
62 38 24 5 56 36 93 92 21 34 26 50 21 75 -12 62 -76 97 -76 42 0 -41 -34 -91
-123 -181 l-32 -33 -3 28 c-2 15 1 60 8 100 6 41 10 75 8 76 -13 10 -98 56
-102 56 -3 0 -9 -8 -14 -17z"/>
<path d="M1837 504 c-3 -4 -4 -41 0 -84 4 -57 2 -89 -11 -126 -15 -45 -74
-132 -92 -137 -4 -1 -9 30 -11 68 -4 86 -30 201 -50 221 -11 11 -33 14 -82 12
-75 -3 -87 -17 -52 -65 37 -50 72 -171 78 -271 7 -106 19 -123 87 -120 34 1
43 8 92 68 31 39 54 77 54 91 0 12 23 64 52 113 41 73 52 102 56 148 l4 57
-43 11 c-24 6 -51 13 -60 16 -8 2 -18 1 -22 -2z"/>
<path d="M503 479 c-36 -23 -85 -95 -103 -151 -20 -66 -17 -138 10 -191 28
-57 61 -77 124 -77 43 0 48 3 95 60 27 32 52 68 56 80 3 11 9 18 13 16 4 -2 8
23 10 56 4 66 -15 108 -47 108 -20 0 -61 35 -101 88 l-25 32 -32 -21z m83
-167 c47 -24 57 -46 39 -88 -15 -37 -79 -94 -105 -94 -48 0 -56 111 -13 178
15 23 30 38 33 33 3 -5 24 -18 46 -29z"/>
<path d="M1282 480 c-99 -60 -151 -234 -101 -337 29 -61 61 -83 119 -83 44 0
51 4 94 50 25 27 51 61 58 75 6 14 14 25 17 25 4 0 8 30 9 66 4 71 -12 104
-49 104 -20 0 -99 77 -99 96 0 22 -16 23 -48 4z m76 -167 c65 -30 68 -59 17
-126 -38 -50 -76 -67 -100 -47 -21 18 -29 76 -16 120 13 43 53 99 59 82 2 -7
20 -20 40 -29z"/>
<path d="M2090 478 c-46 -31 -85 -91 -104 -159 -28 -97 -16 -166 38 -224 29
-31 39 -35 82 -35 55 1 79 17 130 85 41 55 64 109 64 149 0 38 -33 86 -59 86
-24 0 -47 22 -104 103 -12 17 -14 17 -47 -5z m88 -168 c32 -17 42 -28 42 -47
0 -34 -24 -76 -60 -107 -59 -49 -92 -28 -94 58 0 43 5 62 28 96 15 24 31 38
35 32 3 -5 25 -20 49 -32z"/>
<path d="M862 464 c-107 -53 -138 -126 -84 -197 29 -39 66 -57 118 -57 46 0
134 -20 134 -30 0 -15 -38 -31 -81 -35 -21 -3 -48 -9 -58 -15 -28 -14 -74 -12
-97 5 -18 14 -54 20 -54 10 0 -3 11 -28 25 -55 29 -58 44 -64 142 -57 118 8
223 75 223 143 0 54 -66 90 -208 114 -83 14 -87 24 -22 58 45 23 92 25 149 7
22 -7 23 -6 18 16 -7 30 -30 90 -40 107 -15 22 -108 15 -165 -14z"/>
</g>
</svg>
