<?xml version="1.0" standalone="no"?>
<!DOCTYPE svg PUBLIC "-//W3C//DTD SVG 20010904//EN"
 "http://www.w3.org/TR/2001/REC-SVG-20010904/DTD/svg10.dtd">
<svg version="1.0" xmlns="http://www.w3.org/2000/svg"
 width="25px" viewBox="0 0 32.000000 32.000000"
 preserveAspectRatio="xMidYMid meet">

<g transform="translate(0.000000,32.000000) scale(0.100000,-0.100000)"
fill="#333" stroke="none">
<path d="M130 251 c-17 -35 -25 -41 -65 -47 -25 -3 -45 -9 -45 -13 0 -4 14
-20 31 -37 28 -27 30 -33 25 -77 -7 -53 -4 -55 49 -30 33 16 37 16 70 0 53
-25 56 -23 49 31 -5 43 -3 49 25 76 17 17 31 33 31 37 0 4 -20 11 -45 15 -40
6 -48 11 -66 45 -10 22 -24 39 -29 39 -5 0 -19 -18 -30 -39z"/>
</g>
</svg>
