<?xml version="1.0" standalone="no"?>
<!DOCTYPE svg PUBLIC "-//W3C//DTD SVG 20010904//EN"
 "http://www.w3.org/TR/2001/REC-SVG-20010904/DTD/svg10.dtd">
<svg version="1.0" xmlns="http://www.w3.org/2000/svg"
 width="45px" viewBox="0 0 512.000000 512.000000" 
 preserveAspectRatio="xMidYMid meet">

<g transform="translate(0.000000,512.000000) scale(0.100000,-0.100000)"
fill="darkolivegreen" stroke="none">
<path d="M2190 5041 c-30 -10 -116 -46 -191 -79 -150 -67 -229 -91 -331 -99
-37 -3 -68 -9 -68 -12 0 -3 41 -51 90 -106 145 -160 202 -257 186 -318 -18
-72 -146 -183 -364 -315 -66 -40 -125 -79 -132 -87 -9 -11 -9 -31 0 -89 21
-126 -13 -212 -101 -256 -36 -19 -73 -25 -324 -49 -55 -6 -123 -17 -151 -26
-50 -14 -52 -17 -73 -74 -27 -75 -88 -144 -146 -167 -55 -20 -114 -15 -239 21
-154 45 -256 30 -320 -45 -21 -26 -26 -42 -26 -88 l0 -56 84 -81 c79 -75 85
-84 96 -139 16 -79 179 -359 513 -881 l154 -240 69 -1 c93 -1 159 -25 263 -94
315 -211 611 -707 611 -1024 0 -81 -8 -103 -88 -264 -67 -132 -67 -133 -67
-215 0 -75 3 -88 28 -126 61 -91 130 -92 228 -2 89 81 100 86 204 86 103 1
131 12 151 60 19 47 18 98 -7 245 -12 69 -22 175 -23 235 -1 105 0 113 29 164
18 33 49 68 80 91 95 71 331 176 494 220 65 18 97 34 146 70 100 77 169 110
232 110 99 0 177 -60 280 -217 46 -70 67 -93 103 -111 94 -47 153 -21 196 89
100 254 281 374 667 444 109 19 117 27 117 103 0 32 -9 45 -75 109 -41 39 -75
79 -75 87 0 8 39 49 88 92 160 142 220 226 390 544 57 107 133 239 168 294 60
93 64 103 64 157 0 52 -3 61 -34 93 -38 41 -53 43 -148 20 -64 -16 -73 -16
-140 1 -40 9 -138 48 -218 85 -177 83 -198 89 -327 99 -115 10 -154 26 -191
81 -29 43 -25 71 24 177 35 78 43 134 22 150 -7 5 -76 31 -153 58 -255 87
-343 150 -411 293 -105 222 -126 262 -172 323 -62 81 -120 132 -192 169 -89
45 -125 52 -320 60 -226 9 -272 21 -339 88 -54 54 -81 129 -81 226 0 31 -5 66
-10 77 -28 51 -149 71 -240 40z"/>
</g> <text>Kosovo</text>
</svg>
